<?xml version="1.0" encoding="utf-8"?>
<!-- Generator: Adobe Illustrator 16.0.0, SVG Export Plug-In . SVG Version: 6.00 Build 0)  -->
<!DOCTYPE svg PUBLIC "-//W3C//DTD SVG 1.1//EN" "http://www.w3.org/Graphics/SVG/1.1/DTD/svg11.dtd">
<svg version="1.1" xmlns="http://www.w3.org/2000/svg" xmlns:xlink="http://www.w3.org/1999/xlink" x="0px" y="0px" width="227px"
	 height="356px" viewBox="0 0 227 356" enable-background="new 0 0 227 356" xml:space="preserve">
<g id="FILLS">
	<path fill-rule="evenodd" clip-rule="evenodd" fill="#FFF200" d="M156.103,173.488c0,0,5.446-15.649-1.593-34.051
		c0,0,70.305-45.09,4.746-84.793c0,0,2.079,8.801-6.125,20.154c0,0-21.3-62.047-86.51-19.896c0,0,32.163-4.719,34.706,23.984
		c0,0-52.625-15.798-52.473,48.418c0,0,17.23-26.254,45.934-3.364c0,0-12.689,14.339-9.07,23.156c0,0-11.494,4.454-12.004,10.8
		c-0.509,6.346-0.774,9.664,3.246,14.195c0,0-6.563,3.381-6.353,12.332c0,0-6.967,2.189-4.107,6.094c0,0,9.03,10.449,31.194,11.176
		c0,0,12.051,42.254-5.964,47.035c0,0-8.462-5.686-10.332-0.564c0,0,1.763,4.396,7.576,6.213c0,0,20.71,8.355,47.96,0l-1.918,17.771
		c0,0-0.207-0.397-1.753-0.428c-0.006,0.818-0.247,1.703-0.8,2.62c-0.647,1.074-1.293,2.158-1.757,3.328
		c-0.187,0.47-0.422,0.879-0.69,1.244c-1.107,2.6-2.093,5.223-4.364,7.368c-0.265,0.25-0.544,0.455-0.83,0.632l1.939,0.163
		l-6.425,9.211c0,0-31.726-11.053-38.266,19.117h77.754c0,0-0.443-47.63-13.782-42.663l-0.025-30.716l6.177-36.004
		c0,0,20.948-5.836,21.737-20.159S156.103,173.488,156.103,173.488z"/>
	<path fill-rule="evenodd" clip-rule="evenodd" fill="#FFFFFF" d="M122.613,176.814c0,0,21.271-3.313,17.609-27.024
		c-3.661-23.712-13.6-26.502-22.143-24.584c0,0-18.181-0.479-14.646,29.466C106.398,179.779,122.613,176.814,122.613,176.814z"/>
	<path fill-rule="evenodd" clip-rule="evenodd" fill="#FFFFFF" d="M85.127,148.395c0,0,12.205-0.174,8.195,16.738
		c0,0-2.093,8.369-10.287,9.24c0,0-11.446-2.874-9.472-14.514C73.563,159.859,77.182,149.71,85.127,148.395z"/>
	<path fill-rule="evenodd" clip-rule="evenodd" fill="#FFFFFF" d="M122.09,232.259l1.396,16.04c0,0,11.158-4.357,15.517-14.645
		C139.002,233.654,128.367,225.982,122.09,232.259z"/>
	<path fill="#FFF200" d="M92.858,298.202l-14.064-1.588c0,0-16.379,0.964-17.616-12.481c0,0-16.439-16.563-7.52-26.31
		c0,0,5.151,0.428,8.92,8.342c0,0-1.163-14.733,6.767-14.338c0,0,5.292-2.243,5.292,11.323c0,0,4.401-4.772,8.479-3.875
		c0,0,2.499-2.638,6.054,8.155l-4.735,19.46c0,0,23.231,1.525,28.138,1.868c0,0,12.242-19.396,20.691-17.038l-2.103,34.389
		L92.858,298.202z"/>
</g>
<g id="LINES">
	<g>
		<g>
			<path fill-rule="evenodd" clip-rule="evenodd" d="M80.626,315.304c0.396-1.814,0.521-3.747,1.253-5.413
				c1.145-2.602,2.65-5.051,4.104-7.507c0.725-1.225,1.671-2.318,2.516-3.471c0.204,0.107,0.407,0.214,0.611,0.32
				c-0.778-0.133-1.552-0.333-2.334-0.387c-2.818-0.193-5.583-0.52-7.982-2.232c-0.252-0.181-0.733-0.119-1.091-0.061
				c-6.471,1.062-12.837-1.148-15.979-7.567c-0.679-1.39-0.637-3.237-0.547-4.854c0.051-0.902-0.081-1.288-0.796-1.731
				c-3.271-2.03-6.146-4.512-7.84-8.041c-1.996-4.161-3.131-8.476-1.817-13.144c0.633-2.25,2.22-3.518,4.295-3.705
				c1.1-0.102,2.419,0.835,3.435,1.583c0.92,0.679,1.562,1.737,2.429,2.746c0.075-0.365,0.164-0.654,0.192-0.949
				c0.319-3.303,1.767-6.135,3.76-8.697c1.269-1.63,4.326-2.552,6.15-1.851c2.203,0.849,4.223,3.506,4.299,5.906
				c0.05,1.591,0.009,3.185,0.27,4.845c1.137-1.941,2.533-3.229,4.704-3.664c2.638-0.528,5.377,0.504,6.937,2.742
				c1.527,2.191,2.315,4.647,1.976,7.258c-0.482,3.699-1.215,7.372-1.938,11.037c-0.483,2.448-1.139,4.863-1.755,7.455
				c2.354,0.237,4.626,0.565,6.907,0.677c5.162,0.254,10.338,0.282,15.488,0.661c1.693,0.123,3.326,1.039,4.7,1.498
				c2.231-3.442,4.323-6.93,6.678-10.229c2.333-3.269,5.73-5.246,9.442-6.581c1.121-0.403,2.47-0.17,4.102-0.245
				c2.381-4.196,1.91-9.274,2.318-14.456c-1.414,0.303-2.675,0.58-3.939,0.84c-3.082,0.636-6.141,1.538-9.255,1.82
				c-3.41,0.309-6.89,0.247-10.31-0.028c-4.265-0.344-8.544-0.845-12.731-1.698c-3.938-0.803-7.783-2.103-11.638-3.282
				c-2.342-0.716-3.88-2.458-5.036-4.536c-0.253-0.453-0.399-1.021-0.416-1.54c-0.1-2.931,1.573-4.344,4.496-3.812
				c1.211,0.221,2.396,0.584,3.611,0.776c0.577,0.091,1.312,0.129,1.772-0.146c2.235-1.338,4.05-3.051,5.004-5.609
				c1.78-4.77,2.835-9.687,2.37-14.747c-0.667-7.247-1.678-14.462-2.513-21.694c-0.142-1.228-0.708-1.572-1.932-1.551
				c-4.788,0.081-9.351-1.195-13.892-2.529c-0.756-0.222-1.485-0.565-2.253-0.702c-5.021-0.887-8.761-3.52-11.288-7.964
				c-1.508-2.649-0.641-5.148,2.234-6.001c0.516-0.153,1.042-0.271,1.668-0.433c0.013-5.146,0.876-9.938,6.358-12.336
				c-5.938-5.215-4.445-16.446,0.573-20.928c1.427-1.275,3.323-2.016,4.965-3.06c0.463-0.294,1.14-0.813,1.127-1.208
				c-0.26-8.324,3.727-14.933,8.451-21.258c0.171-0.228,0.331-0.464,0.61-0.856c-1.746-1.056-3.406-2.09-5.094-3.075
				c-6.228-3.636-13.056-4.452-20.099-4.254c-7.358,0.207-12.622,3.874-16.452,9.929c-0.367,0.582-0.779,1.138-1.186,1.695
				c-0.08,0.111-0.225,0.178-0.594,0.455c-0.255-1.521-0.6-2.876-0.691-4.248c-0.438-6.468-0.347-12.895,1.732-19.142
				c0.245-0.74,0.43-1.546,0.416-2.317c-0.065-3.58,1.533-6.497,3.323-9.454c4.502-7.439,10.577-12.995,18.851-15.791
				c7.36-2.486,14.962-3.394,22.723-2.272c0.68,0.098,1.354,0.267,2.014,0.461c0.609,0.181,1.194,0.439,1.832,0.679
				c-0.741-8.394-5.62-13.998-12.47-17.883c-6.841-3.881-14.269-4.394-21.897-1.885c1.089-2.342,2.449-4.226,4.347-5.686
				c8.428-6.488,17.784-11.056,28.366-12.399c4.066-0.516,8.365,0.094,12.472,0.743c6.86,1.085,13.734,2.521,19.951,5.7
				c4.217,2.156,7.999,5.161,11.973,7.792c4.236,2.806,7.144,6.745,9.329,11.231c0.788,1.618,1.202,3.419,1.848,5.314
				c2.817-4.964,6.042-9.662,3.916-16.131c0.811,0.21,1.401,0.269,1.903,0.511c1.641,0.791,3.211,1.732,4.875,2.463
				c5.827,2.562,10.414,6.68,14.49,11.435c1.725,2.013,3.592,3.974,4.929,6.233c4.831,8.163,6.332,17.006,4.521,26.318
				c-0.712,3.66-1.652,7.3-2.823,10.838c-0.665,2.009-1.899,3.865-3.071,5.663c-1.336,2.047-2.657,4.193-4.396,5.87
				c-3.216,3.098-6.635,6.007-10.15,8.765c-3.004,2.355-6.252,4.401-9.411,6.556c-0.78,0.531-0.826,1.135-0.679,2.019
				c0.758,4.555,1.929,9.116,1.992,13.688c0.072,5.283-0.859,10.578-1.356,15.869c-0.022,0.232-0.066,0.464-0.127,0.872
				c3.62-0.496,6.709,0.931,9.886,2.15c2.004,0.769,3.289,2.175,4.652,3.701c2.972,3.328,3.413,7.063,2.246,11.16
				c-1.147,4.023-2.921,7.825-5.547,11.018c-1.638,1.988-4.003,3.484-6.268,4.821c-2.315,1.368-4.925,2.231-7.363,3.405
				c-0.533,0.258-1.152,0.833-1.274,1.367c-0.519,2.244-0.813,4.54-1.286,6.796c-0.979,4.67-1.72,9.419-3.115,13.964
				c-1.544,5.033-1.764,10.146-2.005,15.291c-0.359,7.719-0.65,15.441-0.961,23.162c-0.022,0.588-0.039,1.201,0.099,1.764
				c0.083,0.344,0.435,0.845,0.718,0.883c2.864,0.385,4.278,2.546,5.891,4.552c3.67,4.565,4.423,10.128,5.381,15.59
				c1.414,8.056,2.744,16.132,2.754,24.353c-1.577,0-3.155,0-4.733,0c-0.024-1.379,0.007-2.761-0.081-4.135
				c-0.554-8.592-1.008-17.194-1.758-25.769c-0.397-4.539-2.43-8.492-5.8-11.641c-1.317-1.232-4.205-1.516-5.515-0.39
				c-1.619,1.391-3.063,3.005-4.456,4.63c-0.826,0.962-1.41,2.131-2.103,3.206c-0.176-0.07-0.352-0.141-0.526-0.213
				c0.121-0.618,0.197-1.251,0.369-1.856c0.7-2.455,2.357-4.415,4.162-5.947c1.897-1.611,2.169-3.009,1.902-5.412
				c-0.507-4.575-0.279-9.232-0.354-13.857c-0.009-0.559-0.001-1.118-0.001-1.829c-1.216,0.843-2.135,1.742-3.237,2.179
				c-1.344,0.532-1.761,1.368-1.709,2.677c0.023,0.587-0.01,1.191-0.126,1.767c-0.904,4.473-1.321,9.127-2.872,13.366
				c-2.645,7.223-6.429,13.936-11.376,19.917c-0.681,0.823-1.236,1.747-1.789,2.539c2.003,1.262,3.994,2.276,5.695,3.649
				c2.209,1.782,4.261,3.777,6.236,5.821c1.063,1.098,1.188,2.19,0.912,3.335c-0.17-0.133-0.332-0.235-0.464-0.367
				c-2.108-2.129-4.045-4.472-6.364-6.337c-2.628-2.113-5.474-4.261-8.899-4.719c-4.619-0.617-9.31-0.964-13.968-0.941
				c-2.268,0.011-4.641,0.869-6.763,1.804c-2.414,1.064-4.761,2.438-6.838,4.06c-1.816,1.42-3.437,3.221-4.752,5.124
				c-1.919,2.775-2.819,6.037-3.472,9.34C82.598,315.304,81.612,315.304,80.626,315.304z M80.314,189.838
				c-0.027,0.151-0.054,0.303-0.08,0.455c-0.364,0.035-0.748,0.164-1.089,0.091c-2.621-0.566-5.146-1.341-7.066-3.394
				c-0.939-1.005-2.397-1.204-3.333-0.108c-0.512,0.601-0.669,2.06-0.295,2.767c1.928,3.653,4.978,6.01,9.027,7.025
				c1.525,0.384,3.01,0.936,4.545,1.265c3.36,0.723,6.716,1.543,10.118,1.961c3.116,0.382,6.289,0.338,9.439,0.391
				c3.542,0.058,7.142,0.415,10.615-0.075c6.862-0.969,13.674-2.336,20.468-3.729c4-0.819,7.929-1.944,11.335-4.436
				c0.999-0.731,2.318-1.052,3.521-1.471c0.849-0.295,1.402,0.125,1.317,1.021c-0.271,2.888-0.47,5.793-0.956,8.647
				c-0.669,3.928-1.849,7.782-2.321,11.728c-0.852,7.097-1.721,14.109-4.498,20.826c-3.696,8.942-9.839,14.881-19.244,17.425
				c-4.81,1.301-9.688,0.89-14.547,0.847c-5.182-0.046-10.324-0.491-15.225-2.443c-1.774-0.706-3.601-1.342-5.459-1.756
				c-0.822-0.184-2.101-0.041-2.613,0.491c-0.809,0.841-0.353,1.992,0.334,2.962c1.438,2.028,3.473,2.996,5.821,3.443
				c2.464,0.469,4.918,1.041,7.404,1.331c5.221,0.608,10.451,1.289,15.695,1.515c4.96,0.214,9.903-0.427,14.839-1.159
				c4.65-0.69,8.118-3.118,10.691-6.695c3.753-5.215,6.585-11.064,8.566-17.109c1.932-5.894,2.939-12.127,3.949-18.276
				c1.056-6.434,2.256-12.772,5.24-18.639c0.327-0.645,0.698-1.267,1.049-1.899c0.169,0.074,0.339,0.147,0.508,0.222
				c-0.918,2.877-1.837,5.754-2.799,8.766c2.904-0.483,5.57-1.559,8.074-3.017c1.309-0.762,2.833-1.498,3.658-2.67
				c1.714-2.434,3.243-5.056,4.441-7.779c1.193-2.713,1.773-5.616,0.429-8.587c-2.246-4.961-6.912-5.714-11.438-6.646
				c-2.593-0.534-4.889,0.771-7.251,1.58c-0.366,0.124-0.849-0.096-1.276-0.155c0.236-0.386,0.42-0.822,0.724-1.146
				c0.405-0.436,1.157-0.701,1.318-1.187c0.524-1.582,0.969-3.212,1.229-4.857c0.919-5.813,1.287-11.707,0.695-17.532
				c-0.699-6.88-1.432-13.901-6.644-19.308c-0.335-0.346-0.416-0.938-0.615-1.415c0.141-0.091,0.282-0.183,0.423-0.273
				c2.32,2.222,4.642,4.443,7.055,6.754c2.169-1.645,4.305-3.301,6.479-4.9c2.184-1.605,4.404-3.158,6.615-4.726
				c6.34-4.497,11.151-10.223,13.718-17.614c1.929-5.557,3.364-11.284,3.063-17.209c-0.164-3.258-0.698-6.588-1.681-9.691
				c-1.546-4.888-4.568-8.925-8.03-12.759c-4.52-5.006-10.03-8.467-15.941-11.729c0,0.331,0.007,0.562-0.001,0.791
				c-0.094,2.509-0.055,5.046-1.313,7.341c-1.796,3.271-3.562,6.561-5.469,9.768c-0.323,0.543-1.265,0.877-1.964,0.964
				c-0.294,0.036-0.769-0.787-1.031-1.288c-0.221-0.422-0.322-0.938-0.361-1.422c-0.271-3.354-1.462-6.253-3.272-9.166
				c-3.597-5.788-8.647-9.807-14.411-13.018c-6.295-3.507-12.941-6.249-19.991-7.905c-7.626-1.79-15.154-1.984-22.668,0.792
				c-6.19,2.288-12.052,5.118-17.37,9.035c-0.688,0.506-1.334,1.07-2.296,1.847c0.619-0.056,0.813-0.054,0.998-0.093
				c7.481-1.604,14.186,0.814,20.444,4.442c4.608,2.67,7.602,6.938,9.843,11.827c1.645,3.585,1.895,7.049,0.733,10.711
				c-0.321,1.017-0.717,2.009-1.078,3.012c-0.191-0.037-0.384-0.074-0.575-0.112c-0.042-0.7-0.12-1.4-0.119-2.102
				c0.001-3.006-0.059-3.094-3.04-3.824c-0.286-0.07-0.579-0.12-0.869-0.166c-4.322-0.677-8.646-0.552-12.958,0.054
				c-5.442,0.764-10.756,1.959-15.486,4.973C62.977,86.659,59,90.906,55.975,96.139c-1.434,2.48-2.696,4.896-2.604,7.854
				c0.027,0.865-0.19,1.772-0.46,2.607c-1.768,5.475-2.096,11.1-1.84,16.791c0.007,0.15,0.1,0.299,0.188,0.55
				c0.234-0.258,0.382-0.39,0.493-0.547c3.142-4.362,7.437-6.925,12.607-8.179c4.668-1.132,9.346-1.759,14.19-1.45
				c6.126,0.391,11.37,2.512,15.702,6.871c0.469,0.473,0.986,0.896,1.477,1.338c2.618-2.089,4.753-4.632,8.434-5.37
				c-0.382,0.435-0.529,0.623-0.696,0.79c-2.646,2.64-5.289,5.279-7.94,7.912c-3.641,3.615-6.057,8.048-7.86,12.74
				c-0.985,2.561-1.116,5.452-1.591,8.202c-0.116,0.667,0.003,1.163,0.93,1.313c4.714,0.762,7.525,3.394,8.118,8.077
				c0.716,5.653,0.044,11.057-3.757,15.731c-2.767,3.403-7.052,5.32-11.593,2.509c-0.89-0.55-1.538-0.331-2.303,0.066
				c-3.24,1.686-4.115,4.72-4.465,7.991c-0.11,1.044-0.28,2.495,0.284,3.114c1.321,1.447,3.039,2.552,4.664,3.695
				C78.651,189.237,79.522,189.481,80.314,189.838z M62.82,279.514c-0.643-2.698,1.067-3.918,2.774-4.913
				c-0.949-2.165-1.885-4.215-2.751-6.292c-1.257-3.016-2.791-5.84-5.22-8.1c-1.914-1.781-4.313-1.15-4.991,1.379
				c-0.265,0.99-0.478,2.036-0.461,3.054c0.116,7.056,3.373,12.286,9.409,15.831c1.851,1.088,2.121,1.712,1.833,3.833
				c-0.142,1.046-0.246,2.229,0.093,3.187c2.031,5.732,9.413,8.771,15.071,6.344c0.539-0.231,1.203-0.174,1.81-0.251
				c0.067,0.545,0.136,1.089,0.255,2.04c2.095,0.365,4.437,0.623,6.693,1.202c2.946,0.758,5.507,0.609,8.194-1.182
				c2.072-1.381,4.618-2.404,7.076-2.782c5.448-0.837,10.894,0.102,16.29,0.987c0.836,0.136,1.226-0.051,1.666-0.731
				c0.802-1.237,1.635-2.48,2.628-3.562c3.853-4.199,6.531-9.073,8.465-14.388c0.184-0.508,0.13-1.102,0.186-1.655
				c-0.618-0.061-1.238-0.158-1.858-0.161c-0.275-0.001-0.552,0.191-0.825,0.301c-7.461,2.987-11.25,9.287-14.303,16.141
				c-0.587,1.317-0.944,1.309-2.083,0.931c-2.078-0.69-4.2-1.523-6.349-1.68c-7.058-0.51-14.135-0.743-21.321-1.089
				c-0.456,0.585-1.092,1.399-1.728,2.214c-0.157-0.055-0.316-0.108-0.475-0.163c0.157-1.283,0.219-2.585,0.492-3.843
				c0.447-2.063,1.083-4.086,1.549-6.146c0.684-3.025,1.333-6.061,1.915-9.106c0.639-3.334,0.977-6.651-1.138-9.686
				c-1.256-1.803-3.258-2.536-5.385-2.045c-2.123,0.49-2.856,2.08-3.328,3.911c-0.884,3.438-0.468,6.839,0.393,10.209
				c0.082,0.321,0.57,0.54,0.885,0.818c-2.973,3.693-5.297,7.648-3.721,12.796c-1.767-0.326-2.425-1.2-2.573-2.965
				c-0.258-3.066,1.197-5.495,2.817-7.894c0.303-0.449,0.455-1.118,0.41-1.664c-0.19-2.279-0.592-4.512-0.616-6.844
				c-0.042-3.995-0.616-8.004-1.218-11.969c-0.41-2.704-3.506-4.583-5.478-3.403c-2.777,1.662-4.318,4.401-4.646,7.52
				c-0.543,5.16,1.767,9.663,3.849,14.168c0.728-0.084,1.393-0.161,2.058-0.238c0.066,0.15,0.134,0.299,0.201,0.448
				C67.029,275.685,64.181,276.703,62.82,279.514z M84.97,173.073c1.953-0.12,3.899-1.299,5.226-3.338
				c2.818-4.328,4.095-9.026,2.762-14.158c-0.545-2.099-1.302-4.148-3.554-5.141c-3.383-1.491-7.291-0.725-9.937,2.019
				c-3.482,3.614-4.413,7.981-3.689,12.802C76.48,169.945,81.517,173.143,84.97,173.073z M124.128,232.034
				c2.651,4.461,2.64,8.992,1.104,13.87c0.799-0.279,1.348-0.443,1.874-0.66c4.373-1.799,7.016-5.427,9.53-9.151
				c0.246-0.365,0.11-1.438-0.208-1.654c-1.271-0.868-2.643-1.617-4.051-2.246C129.739,231.014,127.032,231.134,124.128,232.034z"/>
			<path fill-rule="evenodd" clip-rule="evenodd" d="M140.966,315.304c-0.502-3.402-1.072-6.798-1.488-10.21
				c-0.542-4.444-0.97-8.902-1.423-13.357c-0.069-0.683-0.009-1.379-0.009-2.068c0.213-0.038,0.426-0.075,0.64-0.112
				c0.393,1.217,0.955,2.408,1.146,3.655c0.746,4.914,1.39,9.844,2.042,14.771c0.322,2.436,0.58,4.881,0.868,7.321
				C142.149,315.304,141.558,315.304,140.966,315.304z"/>
			<path fill-rule="evenodd" clip-rule="evenodd" d="M141.914,153.862c-0.105,5.341-1.044,10.456-3.981,14.756
				c-3.48,5.097-8.053,8.823-14.808,8.883c-2.939,0.025-5.689-0.176-8.457-1.319c-3.553-1.468-6.233-3.77-7.885-7.172
				c-4.296-8.854-5.413-18.173-4.054-27.887c0.482-3.452,1.675-6.588,3.41-9.515c1.746-2.943,4.164-5.146,7.543-6.281
				c4.524-1.521,8.98-2.273,13.734-0.902c3.909,1.128,6.703,3.532,8.739,6.816c2.478,3.999,4.153,8.412,4.982,13.034
				C141.708,147.454,141.683,150.74,141.914,153.862z M104.223,146.965c0.098,6.91,0.855,12.898,3.372,18.521
				c1.443,3.222,3.25,6.264,6.698,7.745c1.708,0.733,3.508,1.371,5.329,1.698c3.232,0.579,6.479,0.609,9.473-1.125
				c6.363-3.688,9.292-9.433,10.151-16.549c0.497-4.117,0.125-8.173-0.387-12.217c-0.729-5.754-2.573-11.121-6.534-15.528
				c-1.783-1.985-4.035-3.484-6.689-3.764c-3.176-0.335-6.355-0.004-9.496,0.857c-4.404,1.207-7.327,3.857-9.276,7.965
				C104.86,138.794,104.426,143.236,104.223,146.965z"/>
			<path fill-rule="evenodd" clip-rule="evenodd" d="M99.544,174.645c3.2,0.492,5.032,1.683,4.844,3.079
				c-1.916-0.277-3.833-0.773-5.75-0.779c-3.155-0.009-6.144,0.874-8.707,2.798c-1.586,1.19-1.618,1.93-0.446,3.453
				c2.632,3.417,6.548,4.541,10.589,3.004c1.518-0.577,2.998-1.247,4.518-1.813c0.361-0.135,0.813-0.022,1.223-0.024
				c-0.036,0.401,0.065,0.893-0.13,1.188c-1.946,2.975-4.864,5.05-8.253,4.511c-4.305-0.685-8.15-2.905-10.38-7.046
				c-0.593-1.101-0.027-3.64,0.922-4.538c2.05-1.938,4.635-2.934,7.298-3.303c2.427-0.338,2.913-1.312,3.319-3.891
				c0.163-1.029-0.216-2.137-0.249-3.211c-0.016-0.481,0.213-0.97,0.331-1.457c0.381,0.303,0.934,0.526,1.115,0.92
				C100.867,169.877,100.577,172.227,99.544,174.645z"/>
			<path fill-rule="evenodd" clip-rule="evenodd" d="M85.951,164.453c-0.748,1.102-1.207,2.258-2.059,2.835
				c-0.447,0.304-1.808-0.177-2.357-0.713c-1.046-1.015-1.015-3.632,0.051-4.45c0.601-0.463,1.895-0.724,2.448-0.382
				C84.825,162.231,85.222,163.354,85.951,164.453z"/>
			<path fill-rule="evenodd" clip-rule="evenodd" d="M117.601,162.299c-0.003,2.199-0.705,3.106-2.426,3.131
				c-1.533,0.022-2.456-1.167-2.477-3.19c-0.019-1.74,1.09-3.199,2.412-3.179C116.574,159.083,117.604,160.421,117.601,162.299z"/>
		</g>
		<g>
			<path d="M153.644,124.718c1.36,1.918,2.863,3.745,4.404,5.521c1.528,1.76,3.121,3.988,5.199,5.105
				c0.266,0.143,0.546-0.141,0.406-0.406c-0.997-1.889-2.829-3.369-4.266-4.932c-1.742-1.896-3.453-3.836-5.303-5.629
				C153.862,124.161,153.453,124.449,153.644,124.718L153.644,124.718z"/>
			<path d="M157.174,122.199c1.367,1.873,2.697,3.746,4.114,5.588c1.176,1.529,2.292,3.553,3.906,4.648
				c0.303,0.205,0.689-0.132,0.597-0.459c-0.523-1.855-2.274-3.51-3.475-4.982c-1.479-1.814-3.143-3.41-4.75-5.098
				C157.374,121.693,157.005,121.967,157.174,122.199L157.174,122.199z"/>
			<path d="M161.107,119.357c1.354,1.705,2.98,3.203,4.464,4.796c1.516,1.627,2.633,3.519,4.034,5.226
				c0.276,0.337,0.814-0.025,0.705-0.41c-1.15-4.027-5.449-7.699-8.629-10.186C161.269,118.459,160.779,118.943,161.107,119.357
				L161.107,119.357z"/>
			<path d="M165.243,116.566c-0.011,0.035-0.022,0.068-0.033,0.104c-0.099,0.117-0.183,0.291-0.118,0.448
				c0.617,1.524,2.19,2.501,3.426,3.493c1.643,1.318,3.09,2.931,4.752,4.201c0.162,0.123,0.426-0.044,0.411-0.236
				c-0.151-1.994-2.482-3.557-3.89-4.675c-0.95-0.755-1.915-1.493-2.851-2.267c-0.211-0.175-1.345-0.951-1.39-1.109
				C165.501,116.352,165.251,116.393,165.243,116.566L165.243,116.566z"/>
			<path d="M167.311,111.717c2.305,1.705,4.487,3.563,6.536,5.566c0.946,0.926,1.794,1.992,2.56,3.068
				c0.459,0.644,0.693,1.122,1.507,1.15c0.176,0.006,0.385-0.135,0.415-0.316c0.279-1.692-2.835-3.449-3.917-4.467
				c-2.126-2.002-4.356-3.895-6.919-5.313C167.285,111.292,167.129,111.582,167.311,111.717L167.311,111.717z"/>
			<path d="M171.351,108.652c3.722,2.071,6.131,5.443,9.079,8.4c0.627,0.629,1.597-0.341,0.973-0.973
				c-2.977-3.013-6.111-5.746-9.941-7.616C171.335,108.402,171.226,108.584,171.351,108.652L171.351,108.652z"/>
			<path d="M172.849,103.653c3.894,1.78,7.251,4.737,10.04,7.938c0.639,0.732,1.683-0.331,1.061-1.061
				c-2.928-3.44-6.777-5.668-11.011-7.092C172.813,103.396,172.728,103.598,172.849,103.653L172.849,103.653z"/>
			<path d="M175.347,99.273c2.375,0.797,4.616,1.818,6.73,3.162c1.605,1.021,2.938,2.888,4.755,3.451
				c0.241,0.074,0.507-0.176,0.423-0.423c-0.631-1.847-3.007-3.063-4.594-4.028c-2.211-1.346-4.636-2.223-7.189-2.614
				C175.178,98.776,175.055,99.176,175.347,99.273L175.347,99.273z"/>
			<path d="M176.313,92.709c4.096,2.156,8.156,3.645,11.642,6.809c0.632,0.572,1.553-0.334,0.939-0.939
				c-3.371-3.33-8.179-4.346-12.384-6.206C176.285,92.272,176.086,92.59,176.313,92.709L176.313,92.709z"/>
			<path d="M176.22,85.83c2.165,0.62,4.262,1.158,6.285,2.185c2.247,1.14,3.651,2.821,5.32,4.61c0.527,0.564,1.297-0.15,1.006-0.776
				c-1.975-4.24-8.386-5.649-12.52-6.349C176.097,85.463,176.003,85.769,176.22,85.83L176.22,85.83z"/>
			<path d="M176.387,79.616c2.129,0.38,4.105,1.13,6.009,2.153c1.326,0.712,2.5,1.988,4.026,2.137
				c0.297,0.028,0.45-0.336,0.324-0.564c-0.759-1.38-2.582-1.889-3.974-2.466c-2.035-0.843-4.184-1.214-6.361-1.444
				C176.307,79.421,176.283,79.598,176.387,79.616L176.387,79.616z"/>
			<path d="M174.876,73.641c1.868,0.373,3.657,1.12,5.356,1.967c1.171,0.582,2.353,1.809,3.687,1.807
				c0.256,0,0.442-0.248,0.377-0.494c-0.384-1.447-2.257-2.067-3.543-2.547c-1.889-0.701-3.866-0.768-5.844-0.979
				C174.769,73.38,174.739,73.613,174.876,73.641L174.876,73.641z"/>
			<path d="M169.903,67.709c1.207,0.008,2.369,0.059,3.561,0.281c1.215,0.229,2.192,1.064,3.381,1.266
				c0.212,0.036,0.396-0.162,0.282-0.367c-1.22-2.215-5.206-2.326-7.275-1.564C169.651,67.398,169.673,67.707,169.903,67.709
				L169.903,67.709z"/>
			<path d="M84.911,48.051c1.085-1.442,3.31-2.557,4.898-3.397c1.525-0.808,3.488-1.214,4.7-2.48
				c0.158-0.167,0.047-0.453-0.188-0.454c-1.926-0.004-3.969,1.306-5.611,2.207c-1.922,1.055-2.801,2.25-4.001,4.007
				C84.622,48.06,84.822,48.168,84.911,48.051L84.911,48.051z"/>
			<path d="M90.411,49.549c1.54-2.598,3.337-4.451,6.067-5.775c2.561-1.242,5.692-1.012,8.102-2.365
				c0.391-0.219,0.271-0.767-0.118-0.898c-2.729-0.932-6.319,0.692-8.669,2.09c-2.526,1.501-4.534,4.159-5.582,6.865
				C90.165,49.583,90.35,49.652,90.411,49.549L90.411,49.549z"/>
			<path d="M97.848,49.015c2.092-2.622,5.471-4.136,8.598-5.103c2.808-0.869,5.729-0.75,8.519-1.49c0.469-0.125,0.392-0.719,0-0.874
				c-2.675-1.063-6.51,0.087-9.019,1.179c-3.318,1.444-6.114,3.217-8.146,6.25C97.779,49.006,97.825,49.043,97.848,49.015
				L97.848,49.015z"/>
			<path d="M104.359,50.542c2.871-1.847,5.841-3.278,9.162-4.116c3.681-0.928,6.681-0.559,10.331-0.281
				c0.562,0.043,0.884-0.753,0.464-1.119c-4.991-4.369-16.08,2.092-20.023,5.431C104.245,50.496,104.307,50.575,104.359,50.542
				L104.359,50.542z"/>
			<path d="M113.419,52.574c2.896-2.435,6.691-3.368,10.375-3.781c2.535-0.284,5.281,0,7.744-0.661c0.627-0.168,0.643-1.12,0-1.28
				c-5.644-1.404-14.226,1.558-18.273,5.568C113.163,52.52,113.313,52.664,113.419,52.574L113.419,52.574z"/>
			<path d="M120.902,57.09c3.203-2.234,6.412-3.17,10.305-3.406c3.29-0.199,6.064,1.15,9.165,1.424
				c0.494,0.044,0.715-0.541,0.526-0.916c-2.883-5.768-17.049-0.835-20.119,2.738C120.708,57.012,120.802,57.159,120.902,57.09
				L120.902,57.09z"/>
			<path d="M129.393,60.125c2.188-0.547,4.397-1.066,6.607-1.514c1.596-0.323,3.142-0.37,4.751-0.147
				c1.424,0.197,2.631,1.08,4.025,1.402c0.333,0.077,0.57-0.255,0.424-0.552c-2.839-5.729-11.999-1.125-15.903,0.582
				C129.163,59.955,129.261,60.158,129.393,60.125L129.393,60.125z"/>
			<path d="M133.381,65.07c5.279-1.639,9.812-0.767,14.767,1.285c0.995,0.411,1.393-1.059,0.674-1.6
				c-4.185-3.154-11.162-2.035-15.488,0.2C133.27,64.988,133.313,65.092,133.381,65.07L133.381,65.07z"/>
			<path d="M136.868,70.109c2.509,0.141,5.038,0.233,7.516,0.685c2.553,0.466,4.801,1.865,7.257,2.606
				c0.828,0.25,1.63-0.945,0.89-1.527c-4.027-3.166-10.927-3.059-15.687-1.947C136.736,69.951,136.767,70.104,136.868,70.109
				L136.868,70.109z"/>
			<path d="M154.319,71.498c-0.836,3.016-4.069,4.68-5.708,7.176c-0.206,0.313-0.223,0.84,0,1.151
				c0.196,0.275,0.365,0.403,0.682,0.524c0.369,0.141,0.843-0.027,1.109-0.293c1.125-1.127,2.122-2.498,2.898-3.884
				c0.846-1.511,1.021-2.978,1.156-4.655C154.464,71.436,154.34,71.424,154.319,71.498L154.319,71.498z"/>
			<path d="M142.843,74.634c3.049,0.588,5.896,1.692,8.892,2.432c0.724,0.179,0.953-0.817,0.299-1.085
				c-2.853-1.168-6.123-1.277-9.159-1.576C142.743,74.391,142.714,74.609,142.843,74.634L142.843,74.634z"/>
			<path d="M54.404,118.033c-0.438-1.178-1.198-2.184-1.604-3.391c-0.392-1.169-0.533-2.748-1.271-3.731
				c-0.142-0.188-0.479-0.204-0.543,0.071c-0.274,1.188,0.388,2.461,0.848,3.545c0.528,1.242,1.282,2.781,2.348,3.635
				C54.274,118.236,54.456,118.172,54.404,118.033L54.404,118.033z"/>
			<path d="M56.475,112.949c-0.945-1.562-1.697-3.182-2.236-4.929c-0.564-1.833-0.44-3.6-0.604-5.47
				c-0.03-0.346-0.473-0.502-0.67-0.181c-2.048,3.336,0.822,8.411,3.153,10.853C56.297,113.41,56.607,113.169,56.475,112.949
				L56.475,112.949z"/>
			<path d="M57.889,107.995c-1.221-2.597-1.965-5.06-1.989-7.946c-0.026-3.163,1.759-5.149,2.729-7.912
				c0.09-0.256-0.191-0.525-0.442-0.443c-6.063,2.002-3.832,13.061-0.493,16.453C57.797,108.253,57.946,108.119,57.889,107.995
				L57.889,107.995z"/>
			<path d="M60.936,104.513c-1.349-3.214-1.304-6.849-0.799-10.241c0.542-3.645,2.504-5.71,4.462-8.558
				c0.156-0.228-0.052-0.544-0.311-0.54c-3.571,0.044-4.882,5.121-5.273,7.877c-0.549,3.867-0.095,8.063,1.635,11.582
				C60.727,104.791,61.004,104.676,60.936,104.513L60.936,104.513z"/>
			<path d="M64.858,101.051c-0.251-3.512-0.304-6.907,0.362-10.383c0.794-4.141,3.016-5.676,5.851-8.363
				c0.253-0.24,0.056-0.661-0.276-0.666c-3.65-0.063-5.791,3.828-6.648,6.91c-1.106,3.981-0.313,8.568,0.574,12.52
				C64.737,101.146,64.864,101.13,64.858,101.051L64.858,101.051z"/>
			<path d="M70.481,94.543c0.14-3.164,0.66-6.232,1.979-9.133c0.67-1.473,1.676-2.782,2.866-3.867
				c1.145-1.043,2.657-1.195,3.798-2.197c0.252-0.221,0.123-0.686-0.199-0.757c-2.91-0.644-5.719,2.54-6.964,4.841
				c-1.783,3.299-1.943,7.455-1.854,11.113C70.112,94.785,70.471,94.783,70.481,94.543L70.481,94.543z"/>
			<path d="M77.419,90.539c-0.271-3.066,0.994-5.803,2.932-8.104c1.044-1.239,2.368-2.19,3.751-3.013
				c1.017-0.605,2.12-0.809,3.031-1.578c0.267-0.225,0.109-0.674-0.199-0.757c-2.834-0.767-6.118,2.483-7.635,4.536
				c-1.893,2.563-3.396,5.809-2.109,8.947C77.234,90.682,77.432,90.682,77.419,90.539L77.419,90.539z"/>
			<path d="M83.48,89.537c-0.354-3.104,1.049-5.839,3.314-7.867c1.056-0.945,2.37-1.639,3.626-2.273
				c1.034-0.523,2.202-0.597,2.811-1.632c0.12-0.204,0.066-0.548-0.171-0.652c-2.413-1.063-6.15,2.417-7.696,4.022
				c-2.322,2.411-3.186,5.261-2.221,8.449C83.197,89.762,83.504,89.736,83.48,89.537L83.48,89.537z"/>
			<path d="M88.83,89.041c0.797-2.69,2.99-5.117,5.219-6.763c0.991-0.732,2.131-1.21,3.305-1.561c1.085-0.325,2.2-0.235,3.179-0.841
				c0.282-0.175,0.239-0.52,0-0.701c-2.106-1.608-5.751,0.43-7.444,1.858c-2.594,2.189-3.729,4.692-4.288,7.999
				C88.796,89.053,88.824,89.061,88.83,89.041L88.83,89.041z"/>
			<path d="M93.934,89.568c0.54-1.674,1.55-3.147,2.705-4.467c1.258-1.436,3.04-2.08,4.432-3.33
				c0.225-0.201,0.048-0.593-0.243-0.586c-4.117,0.089-7.056,4.617-7.124,8.352C93.701,89.674,93.894,89.691,93.934,89.568
				L93.934,89.568z"/>
			<path d="M147.835,169.211c1.168,0.51,2.41,0.746,3.612,1.176c1.033,0.37,2.144,1.359,3.274,1.305
				c0.569-0.026,0.828-0.669,0.452-1.091c-0.717-0.802-2.131-0.737-3.113-0.876c-1.416-0.198-2.742-0.698-4.179-0.689
				C147.795,169.036,147.745,169.172,147.835,169.211L147.835,169.211z"/>
			<path d="M148.374,164.154c1.814,0.646,3.465,1.367,4.969,2.594c0.976,0.797,1.753,2.166,3.049,2.334
				c0.255,0.033,0.441-0.23,0.453-0.453c0.082-1.543-1.934-2.563-3.127-3.165c-1.625-0.82-3.517-1.331-5.336-1.37
				C148.345,164.092,148.342,164.143,148.374,164.154L148.374,164.154z"/>
			<path d="M148.341,160.271c1.885,0.351,3.78,0.638,5.461,1.622c1.167,0.683,2.216,1.92,3.59,2.059
				c0.204,0.021,0.385-0.227,0.316-0.415c-0.508-1.406-2.225-2.021-3.533-2.528c-1.89-0.731-3.753-1.316-5.793-1.045
				C148.224,159.984,148.15,160.234,148.341,160.271L148.341,160.271z"/>
			<path d="M148.357,154.704c1.481,0.325,2.893,0.864,4.252,1.536c1.298,0.643,2.254,1.948,3.662,2.314
				c0.39,0.102,0.704-0.316,0.512-0.666c-0.682-1.232-2.147-1.699-3.403-2.188c-1.626-0.634-3.252-0.939-4.973-1.178
				C148.291,154.508,148.236,154.678,148.357,154.704L148.357,154.704z"/>
			<path d="M147.362,150.177c1.646,0.266,3.258,0.519,4.854,1.015c1.582,0.49,2.95,1.49,4.535,1.933
				c0.617,0.173,0.87-0.63,0.409-0.971c-2.468-1.823-6.787-2.489-9.779-2.114C147.31,150.047,147.277,150.163,147.362,150.177
				L147.362,150.177z"/>
			<path d="M148.339,144.26c1.56,0.225,3.101,0.479,4.629,0.867c1.345,0.342,2.559,1.176,3.924,1.305
				c0.236,0.023,0.426-0.301,0.283-0.493c-1.699-2.304-6.263-2.306-8.793-2.001C148.216,143.958,148.14,144.231,148.339,144.26
				L148.339,144.26z"/>
			<path d="M147.412,139.71c1.701-0.356,3.318-0.032,4.974,0.373c1.393,0.341,2.578,1.181,4.006,1.313
				c0.273,0.025,0.373-0.334,0.21-0.508c-2.253-2.396-6.382-2.455-9.252-1.404C147.209,139.535,147.263,139.742,147.412,139.71
				L147.412,139.71z"/>
			<path d="M147.882,134.225c1.405,0.068,2.714,0.305,4.062,0.687c1.194,0.338,2.198,1.104,3.378,1.431
				c0.25,0.068,0.434-0.248,0.251-0.431c-1.889-1.894-5.2-2.023-7.69-1.952C147.71,133.963,147.712,134.216,147.882,134.225
				L147.882,134.225z"/>
			<path d="M157.327,199.229c0.704,0.783,1.066,1.527,1.45,2.488c0.232,0.582,0.396,1.387,0.973,1.7
				c0.179,0.097,0.354,0.001,0.425-0.173c0.284-0.692-0.364-1.566-0.771-2.099c-0.546-0.716-1.286-1.421-1.943-2.05
				C157.372,199.012,157.247,199.139,157.327,199.229L157.327,199.229z"/>
			<path d="M158.707,195.347c1.045,1.17,1.971,2.558,2.76,3.911c0.749,1.285,1.084,2.713,1.69,4.052
				c0.122,0.271,0.514,0.114,0.523-0.142c0.127-3.152-2.467-6.18-4.598-8.197C158.832,194.734,158.479,195.092,158.707,195.347
				L158.707,195.347z"/>
			<path d="M159.73,192.439c1.407,0.859,2.687,1.871,3.798,3.092c1.192,1.311,1.685,2.836,2.43,4.393
				c0.274,0.572,1.022,0.133,0.942-0.397c-0.521-3.454-3.804-6.346-6.839-7.653C159.683,191.709,159.359,192.213,159.73,192.439
				L159.73,192.439z"/>
			<path d="M161.348,187.832c1.842,0.748,3.447,1.578,4.882,2.981c1.644,1.606,2.231,3.463,3.083,5.511
				c0.243,0.584,1.278,0.592,1.212-0.164c-0.386-4.4-4.902-8.098-9.077-8.689C161.208,187.436,161.122,187.74,161.348,187.832
				L161.348,187.832z"/>
			<path d="M160.85,184.82c4.595,0.651,8.31,2.33,11.04,6.137c0.367,0.512,1.371,0.215,1.1-0.463
				c-1.828-4.572-7.577-6.477-12.092-6.027C160.713,184.486,160.635,184.789,160.85,184.82L160.85,184.82z"/>
			<path d="M163.899,181.848c4.48-0.143,7.023,2.407,10.686,4.36c0.633,0.337,1.344-0.503,0.786-1.019
				c-3.119-2.883-7.282-4.305-11.472-3.748C163.649,181.475,163.63,181.855,163.899,181.848L163.899,181.848z"/>
			<path d="M163.458,177.35c2.31-0.547,4.372-0.049,6.486,0.914c1.164,0.529,2.156,1.635,3.467,1.668
				c0.188,0.004,0.33-0.189,0.279-0.366c-0.49-1.697-2.924-2.47-4.425-3.028c-1.943-0.725-4.161-0.516-5.977,0.413
				C163.062,177.066,163.224,177.406,163.458,177.35L163.458,177.35z"/>
			<path d="M159.124,176.272c1.27-2.033,3.686-2.414,5.851-2.874c0.256-0.055,0.267-0.481,0-0.527
				c-2.515-0.435-5.188,0.781-6.31,3.133C158.52,176.311,158.94,176.566,159.124,176.272L159.124,176.272z"/>
			<path d="M138.871,274.543c0.94,0.082,1.898,0.154,2.841,0.143c0.191-0.002,0.378-0.132,0.424-0.322c0.02-0.084,0.02-0.15,0-0.233
				c-0.046-0.19-0.232-0.319-0.424-0.322c-0.942-0.011-1.9,0.061-2.841,0.142C138.489,273.982,138.489,274.51,138.871,274.543
				L138.871,274.543z"/>
			<path d="M139.802,271.5c0.916,0.255,1.862,0.355,2.77,0.652c0.752,0.246,1.5,0.93,2.307,0.881c0.172-0.01,0.35-0.18,0.279-0.365
				c-0.31-0.811-1.271-1.115-2.033-1.398c-1.05-0.39-2.229-0.552-3.322-0.282C139.543,271.051,139.553,271.431,139.802,271.5
				L139.802,271.5z"/>
			<path d="M141.109,268.005c0.729,0.656,1.617,1.006,2.571,1.186c0.857,0.161,2.142,0.404,2.881-0.14
				c0.229-0.168,0.229-0.451,0-0.621c-0.656-0.483-1.651-0.301-2.436-0.344c-0.946-0.051-1.785-0.353-2.652-0.708
				C141.122,267.234,140.843,267.765,141.109,268.005L141.109,268.005z"/>
			<path d="M141.02,264.406c1.163,0.268,2.172,0.848,3.158,1.488c0.581,0.377,1.122-0.438,0.705-0.913
				c-0.935-1.063-2.502-1.556-3.863-1.313C140.643,263.735,140.663,264.324,141.02,264.406L141.02,264.406z"/>
			<path d="M139.612,259.676c1.569,0.924,3.859,2.061,5.723,1.781c0.808-0.12,0.64-1.248,0-1.467
				c-0.848-0.29-1.784-0.41-2.655-0.643C141.744,259.1,139.202,259.434,139.612,259.676L139.612,259.676z"/>
			<path d="M139.326,255.392c1.056,0.176,2.097,0.462,3.122,0.763c0.938,0.275,1.946,0.684,2.93,0.58
				c0.502-0.052,0.694-0.65,0.257-0.945c-1.646-1.113-4.386-0.975-6.263-0.734C139.198,255.076,139.117,255.357,139.326,255.392
				L139.326,255.392z"/>
			<path d="M140.173,252.445c0.93,0.184,1.859,0.346,2.779,0.574c0.871,0.217,1.943,0.811,2.785,0.317
				c0.361-0.212,0.412-0.618,0.255-0.973c-0.388-0.874-1.706-0.973-2.537-1.169c-1.075-0.252-2.188-0.366-3.282-0.196
				C139.439,251.113,139.469,252.307,140.173,252.445L140.173,252.445z"/>
			<path d="M150.37,312.772c1.612,0.373,3.09,1.042,4.575,1.748c1.104,0.524,1.809,1.572,3.128,1.161
				c0.363-0.113,0.528-0.515,0.346-0.85c-0.687-1.257-2.248-1.118-3.479-1.503c-1.473-0.46-3.006-0.665-4.528-0.864
				C150.235,312.442,150.201,312.732,150.37,312.772L150.37,312.772z"/>
			<path d="M147.811,306.402c2.074,0.906,4.149,1.967,5.995,3.283c1.345,0.959,2.84,3.115,4.587,3.109
				c0.272,0,0.515-0.23,0.508-0.508c-0.04-1.822-2.363-2.949-3.784-3.702c-2.265-1.2-4.733-1.832-7.197-2.44
				C147.77,306.108,147.659,306.336,147.811,306.402L147.811,306.402z"/>
			<path d="M147.747,301.004c1.9,1.107,3.776,2.254,5.52,3.597c1.817,1.399,3.739,3.636,5.967,4.263
				c0.55,0.155,0.888-0.426,0.68-0.883c-0.896-1.968-3.431-3.266-5.247-4.299c-2.122-1.207-4.411-2.172-6.65-3.137
				C147.709,300.414,147.443,300.827,147.747,301.004L147.747,301.004z"/>
			<path d="M147.811,295.391c1.895,0.854,3.731,1.979,5.363,3.262c1.498,1.178,2.79,3.062,4.537,3.779
				c0.5,0.205,0.957-0.384,0.836-0.836c-0.5-1.876-2.765-3.318-4.392-4.215c-1.957-1.08-4.126-1.587-6.236-2.248
				C147.769,295.086,147.663,295.324,147.811,295.391L147.811,295.391z"/>
			<path d="M147.273,290.445c2.124,0.969,4.22,2.165,6.013,3.67c1.377,1.156,2.685,3.285,4.452,3.713
				c0.329,0.08,0.778-0.168,0.731-0.557c-0.243-2.012-2.599-3.423-4.247-4.369c-2.167-1.245-4.411-2.093-6.786-2.843
				C147.211,289.988,147.055,290.346,147.273,290.445L147.273,290.445z"/>
			<path d="M147.831,284.938c2.767,0.494,4.831,2.307,6.766,4.228c1.304,1.295,2.387,3.837,4.297,4.085
				c0.191,0.025,0.44-0.164,0.468-0.355c0.302-2.136-2.685-4.361-4.218-5.535c-2.188-1.676-4.544-2.49-7.263-2.789
				C147.671,284.547,147.624,284.901,147.831,284.938L147.831,284.938z"/>
			<path d="M146.795,278.56c2.245,0.653,4.311,1.704,6.22,3.042c1.608,1.126,2.852,3.072,4.724,3.713
				c0.4,0.137,0.859-0.305,0.711-0.711c-0.702-1.928-3.041-3.197-4.699-4.26c-2.13-1.363-4.324-2.332-6.87-2.414
				C146.512,277.918,146.453,278.46,146.795,278.56L146.795,278.56z"/>
			<path d="M91.096,292.246c0.136-2.625-1.153-4.447-3.48-5.605c-0.86-0.428-1.616,0.839-0.758,1.295
				c1.768,0.938,3.912,2.108,4.145,4.311C91.008,292.306,91.093,292.308,91.096,292.246L91.096,292.246z"/>
			<path d="M95.354,293.39c0.054-2.446-0.321-4.855-2.381-6.401c-0.803-0.603-1.713,0.877-0.797,1.363
				c2.041,1.081,2.849,2.771,2.959,5.038C95.142,293.53,95.351,293.531,95.354,293.39L95.354,293.39z"/>
			<path d="M100.658,291.463c-0.307-1.725-1.118-3.603-2.771-4.4c-0.807-0.39-1.504,0.757-0.709,1.215
				c1.415,0.815,2.731,1.621,3.33,3.227C100.543,291.599,100.676,291.563,100.658,291.463L100.658,291.463z"/>
			<path d="M105.743,292.246c0.037-1.94-0.916-4.816-3.254-4.906c-0.67-0.025-1.022,1.041-0.358,1.325
				c0.688,0.294,1.501,0.372,2.102,0.853c0.831,0.666,1.047,1.719,1.104,2.729C105.352,292.506,105.738,292.51,105.743,292.246
				L105.743,292.246z"/>
			<path d="M111.792,293.432c0.193-1.113-0.301-2.049-0.782-3.013c-0.588-1.179-1.333-1.892-2.454-2.58
				c-0.758-0.465-1.447,0.725-0.693,1.188c0.779,0.479,1.752,1.003,2.411,1.636c0.822,0.787,0.968,1.705,1.218,2.77
				C111.524,293.576,111.766,293.586,111.792,293.432L111.792,293.432z"/>
			<path d="M119.037,292.966c-0.293-1.297-0.791-2.762-1.559-3.864c-0.614-0.883-1.18-2.035-2.374-2.235
				c-0.944-0.157-1.609,1.091-0.683,1.619c0.728,0.415,1.491,0.647,2.199,1.123c1.146,0.771,1.722,2.175,2.115,3.441
				C118.796,293.242,119.082,293.163,119.037,292.966L119.037,292.966z"/>
			<path d="M121.665,289.576c-0.334-2.586-1.822-5.645-4.252-6.844c-0.985-0.486-1.849,0.951-0.867,1.484
				c0.979,0.532,2.091,0.908,2.953,1.625c1.178,0.979,1.705,2.286,1.951,3.764C121.471,289.727,121.681,289.698,121.665,289.576
				L121.665,289.576z"/>
			<path d="M124.825,285.382c-0.298-2.717-1.708-5.332-3.783-7.112c-0.979-0.84-2.103,0.615-1.079,1.398
				c2.137,1.636,3.89,2.966,4.433,5.772C124.442,285.681,124.853,285.627,124.825,285.382L124.825,285.382z"/>
			<path d="M126.973,281.568c-0.045-1.456-0.752-2.571-1.24-3.896c-0.35-0.953-1.249-1.912-2.238-2.185
				c-0.895-0.247-1.487,1.077-0.64,1.517c0.749,0.387,1.41,0.801,2.12,1.251c1.07,0.679,1.492,2.202,1.845,3.334
				C126.845,281.672,126.976,281.659,126.973,281.568L126.973,281.568z"/>
			<path d="M129.303,278.484c-0.278-2.075-1.105-3.889-2.792-5.19c-0.767-0.591-1.512,0.713-0.758,1.295
				c1.402,1.082,2.762,2.208,3.31,3.962C129.111,278.709,129.324,278.64,129.303,278.484L129.303,278.484z"/>
		</g>
	</g>
</g>
</svg>
